<svg width="1206" height="245" viewBox="0 0 1206 245" fill="none" xmlns="http://www.w3.org/2000/svg">
<path d="M399.4 71.81C398.767 72.8867 398.102 73.6783 397.405 74.185C396.708 74.6917 395.822 74.945 394.745 74.945C393.605 74.945 392.307 74.4383 390.85 73.425C389.393 72.3483 387.557 71.1767 385.34 69.91C383.187 68.58 380.59 67.4083 377.55 66.395C374.51 65.3183 370.868 64.78 366.625 64.78C362.635 64.78 359.12 65.3183 356.08 66.395C353.103 67.4083 350.602 68.8333 348.575 70.67C346.548 72.4433 344.997 74.565 343.92 77.035C342.907 79.4417 342.4 82.07 342.4 84.92C342.4 88.5933 343.318 91.6333 345.155 94.04C347.055 96.4467 349.525 98.505 352.565 100.215C355.605 101.925 359.057 103.413 362.92 104.68C366.783 105.947 370.742 107.277 374.795 108.67C378.848 110 382.807 111.552 386.67 113.325C390.533 115.098 393.985 117.347 397.025 120.07C400.065 122.73 402.503 126.023 404.34 129.95C406.24 133.813 407.19 138.563 407.19 144.2C407.19 150.217 406.145 155.853 404.055 161.11C402.028 166.367 399.052 170.958 395.125 174.885C391.198 178.812 386.353 181.915 380.59 184.195C374.89 186.412 368.398 187.52 361.115 187.52C356.745 187.52 352.502 187.077 348.385 186.19C344.268 185.367 340.373 184.195 336.7 182.675C333.027 181.092 329.575 179.223 326.345 177.07C323.178 174.853 320.328 172.383 317.795 169.66L323.59 159.97C324.16 159.21 324.825 158.577 325.585 158.07C326.408 157.563 327.327 157.31 328.34 157.31C329.67 157.31 331.19 158.007 332.9 159.4C334.673 160.793 336.827 162.345 339.36 164.055C341.957 165.702 345.028 167.222 348.575 168.615C352.185 170.008 356.555 170.705 361.685 170.705C365.865 170.705 369.602 170.167 372.895 169.09C376.188 167.95 378.943 166.367 381.16 164.34C383.44 162.25 385.182 159.748 386.385 156.835C387.588 153.922 388.19 150.692 388.19 147.145C388.19 143.155 387.272 139.893 385.435 137.36C383.598 134.827 381.16 132.705 378.12 130.995C375.08 129.285 371.628 127.828 367.765 126.625C363.902 125.422 359.943 124.187 355.89 122.92C351.837 121.59 347.878 120.07 344.015 118.36C340.152 116.65 336.7 114.433 333.66 111.71C330.62 108.923 328.182 105.472 326.345 101.355C324.508 97.175 323.59 92.045 323.59 85.965C323.59 81.0883 324.54 76.37 326.44 71.81C328.34 67.25 331.095 63.2283 334.705 59.745C338.378 56.1983 342.875 53.38 348.195 51.29C353.515 49.1367 359.595 48.06 366.435 48.06C374.098 48.06 381.128 49.295 387.525 51.765C393.985 54.1717 399.59 57.655 404.34 62.215L399.4 71.81Z" fill="white"/>
<path d="M506.784 89.48V186H495.669C493.136 186 491.489 184.765 490.729 182.295L489.399 172.605C487.309 174.822 485.124 176.848 482.844 178.685C480.564 180.522 478.126 182.105 475.529 183.435C472.932 184.702 470.177 185.683 467.264 186.38C464.351 187.14 461.216 187.52 457.859 187.52C452.539 187.52 447.852 186.633 443.799 184.86C439.809 183.087 436.452 180.617 433.729 177.45C431.006 174.22 428.947 170.357 427.554 165.86C426.161 161.363 425.464 156.392 425.464 150.945V89.48H444.084V150.945C444.084 157.848 445.667 163.232 448.834 167.095C452.001 170.895 456.846 172.795 463.369 172.795C468.119 172.795 472.552 171.687 476.669 169.47C480.786 167.19 484.649 164.087 488.259 160.16V89.48H506.784Z" fill="white"/>
<path d="M551.167 162.25C554.207 166.24 557.469 169.027 560.952 170.61C564.499 172.193 568.457 172.985 572.827 172.985C581.314 172.985 587.869 169.945 592.492 163.865C597.179 157.722 599.522 148.792 599.522 137.075C599.522 130.932 598.984 125.707 597.907 121.4C596.894 117.03 595.374 113.483 593.347 110.76C591.384 107.973 588.945 105.947 586.032 104.68C583.119 103.35 579.825 102.685 576.152 102.685C570.769 102.685 566.082 103.888 562.092 106.295C558.165 108.702 554.524 112.122 551.167 116.555V162.25ZM550.217 103.92C552.244 101.513 554.397 99.3283 556.677 97.365C559.02 95.3383 561.522 93.6283 564.182 92.235C566.842 90.7783 569.66 89.67 572.637 88.91C575.677 88.0867 578.907 87.675 582.327 87.675C587.837 87.675 592.809 88.7517 597.242 90.905C601.739 93.0583 605.57 96.225 608.737 100.405C611.904 104.585 614.342 109.747 616.052 115.89C617.825 122.033 618.712 129.095 618.712 137.075C618.712 144.232 617.73 150.882 615.767 157.025C613.867 163.105 611.112 168.393 607.502 172.89C603.955 177.387 599.585 180.933 594.392 183.53C589.262 186.063 583.467 187.33 577.007 187.33C571.244 187.33 566.304 186.38 562.187 184.48C558.07 182.58 554.397 179.92 551.167 176.5V218.395H532.642V89.48H543.757C546.354 89.48 547.969 90.715 548.602 93.185L550.217 103.92Z" fill="white"/>
<path d="M703.452 127.005C703.452 123.332 702.914 119.943 701.837 116.84C700.824 113.737 699.304 111.045 697.277 108.765C695.25 106.485 692.78 104.712 689.867 103.445C686.954 102.178 683.597 101.545 679.797 101.545C672.007 101.545 665.864 103.793 661.367 108.29C656.934 112.787 654.115 119.025 652.912 127.005H703.452ZM718.747 172.225C716.467 174.885 713.839 177.197 710.862 179.16C707.885 181.06 704.719 182.612 701.362 183.815C698.005 185.018 694.522 185.905 690.912 186.475C687.365 187.045 683.85 187.33 680.367 187.33C673.717 187.33 667.542 186.222 661.842 184.005C656.205 181.725 651.297 178.432 647.117 174.125C643 169.755 639.77 164.372 637.427 157.975C635.147 151.515 634.007 144.105 634.007 135.745C634.007 129.032 635.052 122.793 637.142 117.03C639.232 111.203 642.209 106.137 646.072 101.83C649.999 97.5233 654.78 94.135 660.417 91.665C666.054 89.195 672.387 87.96 679.417 87.96C685.307 87.96 690.722 88.9417 695.662 90.905C700.665 92.805 704.972 95.5917 708.582 99.265C712.192 102.938 715.01 107.467 717.037 112.85C719.127 118.233 720.172 124.377 720.172 131.28C720.172 134.13 719.855 136.062 719.222 137.075C718.589 138.025 717.417 138.5 715.707 138.5H652.437C652.627 144.263 653.45 149.298 654.907 153.605C656.364 157.848 658.359 161.395 660.892 164.245C663.489 167.095 666.56 169.217 670.107 170.61C673.654 172.003 677.612 172.7 681.982 172.7C686.099 172.7 689.645 172.225 692.622 171.275C695.662 170.325 698.259 169.312 700.412 168.235C702.629 167.095 704.465 166.05 705.922 165.1C707.442 164.15 708.772 163.675 709.912 163.675C711.432 163.675 712.604 164.245 713.427 165.385L718.747 172.225Z" fill="white"/>
<path d="M757.563 108.005C760.667 101.672 764.403 96.7 768.773 93.09C773.143 89.48 778.4 87.675 784.543 87.675C786.633 87.675 788.597 87.9283 790.433 88.435C792.333 88.8783 793.98 89.575 795.373 90.525L794.138 104.49C793.695 106.2 792.65 107.055 791.003 107.055C790.117 107.055 788.787 106.897 787.013 106.58C785.24 106.2 783.34 106.01 781.313 106.01C778.337 106.01 775.708 106.453 773.428 107.34C771.148 108.163 769.09 109.43 767.253 111.14C765.48 112.787 763.897 114.845 762.503 117.315C761.11 119.722 759.812 122.477 758.608 125.58V186H740.083V89.48H750.723C752.75 89.48 754.112 89.86 754.808 90.62C755.568 91.3167 756.107 92.5833 756.423 94.42L757.563 108.005Z" fill="white"/>
<path d="M809.663 186V89.48H820.778C823.375 89.48 824.99 90.715 825.623 93.185L826.953 102.4C830.5 98.1567 834.427 94.705 838.733 92.045C843.103 89.3217 848.202 87.96 854.028 87.96C860.425 87.96 865.618 89.7333 869.608 93.28C873.598 96.7633 876.512 101.513 878.348 107.53C879.742 104.11 881.547 101.165 883.763 98.695C885.98 96.225 888.45 94.1983 891.173 92.615C893.897 91.0317 896.778 89.86 899.818 89.1C902.922 88.34 906.057 87.96 909.223 87.96C914.353 87.96 918.913 88.7833 922.903 90.43C926.957 92.0133 930.377 94.3567 933.163 97.46C935.95 100.563 938.072 104.395 939.528 108.955C940.985 113.515 941.713 118.708 941.713 124.535V186H923.093V124.535C923.093 117.315 921.51 111.868 918.343 108.195C915.24 104.522 910.68 102.685 904.663 102.685C902.003 102.685 899.47 103.16 897.063 104.11C894.657 104.997 892.535 106.358 890.698 108.195C888.925 110.032 887.5 112.312 886.423 115.035C885.41 117.758 884.903 120.925 884.903 124.535V186H866.283V124.535C866.283 117.062 864.795 111.552 861.818 108.005C858.842 104.458 854.472 102.685 848.708 102.685C844.718 102.685 841.013 103.73 837.593 105.82C834.173 107.91 831.038 110.76 828.188 114.37V186H809.663Z" fill="white"/>
<path d="M1030.57 127.005C1030.57 123.332 1030.03 119.943 1028.96 116.84C1027.94 113.737 1026.42 111.045 1024.4 108.765C1022.37 106.485 1019.9 104.712 1016.99 103.445C1014.07 102.178 1010.72 101.545 1006.92 101.545C999.126 101.545 992.983 103.793 988.486 108.29C984.053 112.787 981.234 119.025 980.031 127.005H1030.57ZM1045.87 172.225C1043.59 174.885 1040.96 177.197 1037.98 179.16C1035 181.06 1031.84 182.612 1028.48 183.815C1025.12 185.018 1021.64 185.905 1018.03 186.475C1014.48 187.045 1010.97 187.33 1007.49 187.33C1000.84 187.33 994.661 186.222 988.961 184.005C983.324 181.725 978.416 178.432 974.236 174.125C970.119 169.755 966.889 164.372 964.546 157.975C962.266 151.515 961.126 144.105 961.126 135.745C961.126 129.032 962.171 122.793 964.261 117.03C966.351 111.203 969.328 106.137 973.191 101.83C977.118 97.5233 981.899 94.135 987.536 91.665C993.173 89.195 999.506 87.96 1006.54 87.96C1012.43 87.96 1017.84 88.9417 1022.78 90.905C1027.78 92.805 1032.09 95.5917 1035.7 99.265C1039.31 102.938 1042.13 107.467 1044.16 112.85C1046.25 118.233 1047.29 124.377 1047.29 131.28C1047.29 134.13 1046.97 136.062 1046.34 137.075C1045.71 138.025 1044.54 138.5 1042.83 138.5H979.556C979.746 144.263 980.569 149.298 982.026 153.605C983.483 157.848 985.478 161.395 988.011 164.245C990.608 167.095 993.679 169.217 997.226 170.61C1000.77 172.003 1004.73 172.7 1009.1 172.7C1013.22 172.7 1016.76 172.225 1019.74 171.275C1022.78 170.325 1025.38 169.312 1027.53 168.235C1029.75 167.095 1031.58 166.05 1033.04 165.1C1034.56 164.15 1035.89 163.675 1037.03 163.675C1038.55 163.675 1039.72 164.245 1040.55 165.385L1045.87 172.225Z" fill="white"/>
<path d="M1096.67 187.52C1088.88 187.52 1082.86 185.335 1078.62 180.965C1074.44 176.595 1072.35 170.357 1072.35 162.25V104.49H1061.14C1060.06 104.49 1059.15 104.173 1058.39 103.54C1057.69 102.843 1057.34 101.83 1057.34 100.5V92.995L1073.02 90.81L1077.2 62.025C1077.45 60.9483 1077.92 60.125 1078.62 59.555C1079.38 58.9217 1080.33 58.605 1081.47 58.605H1090.88V91H1118.24V104.49H1090.88V161.015C1090.88 164.815 1091.79 167.665 1093.63 169.565C1095.53 171.402 1097.94 172.32 1100.85 172.32C1102.56 172.32 1104.02 172.098 1105.22 171.655C1106.49 171.212 1107.56 170.737 1108.45 170.23C1109.34 169.66 1110.1 169.153 1110.73 168.71C1111.36 168.267 1111.93 168.045 1112.44 168.045C1113.07 168.045 1113.55 168.203 1113.87 168.52C1114.25 168.773 1114.63 169.217 1115.01 169.85L1120.52 178.78C1117.48 181.567 1113.87 183.72 1109.69 185.24C1105.51 186.76 1101.17 187.52 1096.67 187.52Z" fill="white"/>
<path d="M1187.17 143.155C1179.63 143.408 1173.23 144.01 1167.98 144.96C1162.72 145.847 1158.45 147.05 1155.15 148.57C1151.86 150.09 1149.48 151.895 1148.03 153.985C1146.57 156.012 1145.84 158.292 1145.84 160.825C1145.84 163.232 1146.22 165.322 1146.98 167.095C1147.81 168.805 1148.88 170.23 1150.21 171.37C1151.61 172.447 1153.22 173.238 1155.06 173.745C1156.89 174.252 1158.89 174.505 1161.04 174.505C1163.89 174.505 1166.49 174.22 1168.83 173.65C1171.24 173.08 1173.49 172.288 1175.58 171.275C1177.67 170.198 1179.66 168.9 1181.56 167.38C1183.46 165.86 1185.33 164.118 1187.17 162.155V143.155ZM1132.83 102.97C1138.21 97.84 1144.04 94.0083 1150.31 91.475C1156.64 88.9417 1163.58 87.675 1171.11 87.675C1176.62 87.675 1181.5 88.5933 1185.74 90.43C1189.99 92.2033 1193.56 94.705 1196.48 97.935C1199.39 101.165 1201.58 105.028 1203.03 109.525C1204.55 114.022 1205.31 118.993 1205.31 124.44V186H1197.05C1195.21 186 1193.82 185.715 1192.87 185.145C1191.92 184.512 1191.16 183.372 1190.59 181.725L1188.59 173.27C1186.12 175.55 1183.68 177.577 1181.28 179.35C1178.87 181.06 1176.34 182.548 1173.68 183.815C1171.08 185.018 1168.29 185.937 1165.32 186.57C1162.34 187.203 1159.05 187.52 1155.44 187.52C1151.64 187.52 1148.06 187.013 1144.7 186C1141.41 184.923 1138.53 183.308 1136.06 181.155C1133.59 179.002 1131.62 176.31 1130.17 173.08C1128.77 169.85 1128.08 166.082 1128.08 161.775C1128.08 157.975 1129.09 154.333 1131.12 150.85C1133.21 147.303 1136.56 144.137 1141.19 141.35C1145.87 138.563 1151.95 136.283 1159.43 134.51C1166.96 132.737 1176.21 131.723 1187.17 131.47V124.44C1187.17 117.157 1185.62 111.71 1182.51 108.1C1179.41 104.49 1174.85 102.685 1168.83 102.685C1164.78 102.685 1161.36 103.192 1158.57 104.205C1155.85 105.218 1153.47 106.358 1151.45 107.625C1149.48 108.828 1147.74 109.937 1146.22 110.95C1144.77 111.963 1143.25 112.47 1141.66 112.47C1140.4 112.47 1139.29 112.122 1138.34 111.425C1137.45 110.728 1136.72 109.905 1136.15 108.955L1132.83 102.97Z" fill="white"/>
<path fill-rule="evenodd" clip-rule="evenodd" d="M6.75 1C3.037 1.192 0 1.569 0 1.837C0 2.919 5.615 13.321 11.158 22.509C14.394 27.872 17.859 33.722 18.857 35.509L20.672 38.758L222.141 39.268L218.926 45.013C214.582 52.774 191.347 92.018 182.664 106.258C176.339 116.631 167.825 131.118 157.392 149.258C155.336 152.833 152.215 158.008 150.457 160.758C146.432 167.054 130.789 193.619 125.985 202.316L122.364 208.874L131.976 224.965C141.755 241.336 143.716 244.258 144.925 244.258C146.064 244.258 158.242 224.599 177.759 191.258C180.817 186.033 184.745 179.508 186.487 176.758C188.229 174.008 191.399 168.608 193.533 164.758C195.666 160.908 199.794 154.05 202.706 149.517C205.618 144.985 208 141.107 208 140.9C208 140.377 221.824 117.326 223.977 114.258C224.942 112.883 227.45 108.608 229.55 104.758C231.65 100.908 234.523 95.845 235.934 93.507C237.345 91.17 241.389 84.42 244.92 78.507C248.45 72.595 255.838 60.333 261.336 51.258C283.837 14.118 290.328 2.597 289.502 1.262C288.927 0.331001 24.392 0.0850015 6.75 1ZM37.5 64.758C37.5 64.758 41.481 73.562 46.958 82.738C52.435 91.913 57.165 101.202 57.5 102.258C58 103.834 59.356 103.258 82.567 103.258C99.941 103.258 107 103.582 107 104.379C107 104.995 103.782 110.732 99.849 117.129C95.916 123.525 90.72 132.234 88.304 136.482L83.91 144.207L92.705 158.885C97.542 166.957 102.484 175.406 103.687 177.66C106.184 182.341 106.875 182.514 108.985 178.985C109.818 177.592 111.668 174.496 113.095 172.105C114.522 169.714 121.456 158.308 128.502 146.758C135.549 135.208 146.207 117.249 152.188 106.849C158.169 96.449 166.198 82.886 170.031 76.708C173.864 70.531 177 65.315 177 65.117C177 64.919 145.5 64.758 107 64.758C68.5 64.758 33.5 64.758 37.5 64.758Z" fill="white"/>
</svg>
